<svg xmlns="http://www.w3.org/2000/svg" version="1.1" xmlns:xlink="http://www.w3.org/1999/xlink" xmlns:svgjs="http://svgjs.dev/svgjs" width="2000" height="1500" viewBox="0 0 2000 1500"><rect width="2000" height="1500" fill="#e9e2da"></rect><g transform="matrix(0.75,0,0,0.75,249.090909090909,278.98548387096776)"><svg viewBox="0 0 396 248" data-background-color="#e9e2da" preserveAspectRatio="xMidYMid meet" height="1252" width="2000" xmlns="http://www.w3.org/2000/svg" xmlns:xlink="http://www.w3.org/1999/xlink"><g id="tight-bounds" transform="matrix(1,0,0,1,0.2400000000000091,0.4000000000000057)"><svg viewBox="0 0 395.52 247.2" height="247.2" width="395.52"><g><svg></svg></g><g><svg viewBox="0 0 395.52 247.2" height="247.2" width="395.52"><g transform="matrix(1,0,0,1,39.55199999999999,89.14708770543437)"><svg viewBox="0 0 316.416 68.90582458913124" height="68.90582458913124" width="316.416"><g><svg viewBox="0 0 316.416 68.90582458913124" height="68.90582458913124" width="316.416"><g><svg viewBox="0 0 316.416 68.90582458913124" height="68.90582458913124" width="316.416"><g transform="matrix(1,0,0,1,0,42.58656396066544)"><svg viewBox="0 0 316.416 26.319260628465805" height="26.319260628465805" width="316.416"><g id="textblocktransform"><svg viewBox="0 0 316.416 26.319260628465805" height="26.319260628465805" width="316.416" id="textblock"><g><svg viewBox="0 0 316.416 26.319260628465805" height="26.319260628465805" width="316.416"><g transform="matrix(1,0,0,1,0,0)"><svg width="316.416" viewBox="4.15 -35.3 432.77000000000004 36" height="26.319260628465805" data-palette-color="#1b2141"><path d="M7.05 0Q5.95 0 5.35-0.6 4.75-1.2 4.75-2.2L4.75-2.2 4.65-28.85Q4.65-30.95 4.58-32.4 4.5-33.85 4.15-34.85L4.15-34.85Q7.95-35.2 14.55-35.2L14.55-35.2Q21.6-35.2 25.33-30.78 29.05-26.35 29.05-17.55L29.05-17.55Q29.05 0 14.75 0L14.75 0 7.05 0ZM8.7-1.85L14.55-1.85Q19.6-1.85 22.13-5.5 24.65-9.15 24.65-17.3L24.65-17.3Q24.65-25.5 22.1-29.4 19.55-33.3 14.55-33.3L14.55-33.3 8.65-33.3 8.7-1.85ZM55.25-3.6Q55.65-3.4 55.87-2.83 56.1-2.25 56.1-1.6L56.1-1.6Q56.1-0.9 55.85-0.45 55.6 0 55.1 0L55.1 0 39.2 0Q38.15 0 37.52-0.6 36.9-1.2 36.9-2.25L36.9-2.25 36.85-28.45Q36.85-31.7 36.2-33.6L36.2-33.6Q36.9-34.2 37.62-34.43 38.35-34.65 39.65-34.65L39.65-34.65 54.75-34.65Q55.1-34.65 55.3-34.33 55.5-34 55.5-33.5L55.5-33.5Q55.5-32.8 55.17-32.05 54.85-31.3 54.35-31.1L54.35-31.1Q47.2-32.35 40.85-32.4L40.85-32.4 40.85-19.4 53.15-19.4Q53.3-18.8 53.3-18.2L53.3-18.2Q53.3-17.6 53.15-17L53.15-17 40.9-17 40.9-2.2Q47.15-2.25 55.25-3.6L55.25-3.6ZM72.65 0.65Q67.1 0.65 64.27-1.43 61.45-3.5 61.45-6.75L61.45-6.75Q61.45-9.65 64.25-9.65L64.25-9.65Q64.8-9.65 65.15-9.6L65.15-9.6Q64.9-8.85 65-7.5L65-7.5Q65.15-4.6 67.27-2.9 69.4-1.2 73.05-1.2L73.05-1.2Q76.35-1.2 78.32-2.75 80.3-4.3 80.3-7.3L80.3-7.3Q80.3-9.25 79.42-10.65 78.55-12.05 76.92-13.25 75.3-14.45 72.3-16.1L72.3-16.1Q68.9-18 66.95-19.43 65-20.85 63.85-22.7 62.7-24.55 62.7-27.1L62.7-27.1Q62.7-31.2 65.7-33.25 68.7-35.3 73.3-35.3L73.3-35.3Q77.8-35.3 80.52-33.65 83.25-32 83.25-29.1L83.25-29.1Q83.25-27 81.25-26.8L81.25-26.8Q80.85-26.7 80.6-26.7L80.6-26.7Q80.3-26.7 79.7-26.8L79.7-26.8Q79.85-27.35 79.85-27.8L79.85-27.8Q79.85-28.4 79.7-28.9L79.7-28.9Q79.5-31.05 77.65-32.25 75.8-33.45 72.9-33.45L72.9-33.45Q70.25-33.45 68.37-32.25 66.5-31.05 66.5-28.35L66.5-28.35Q66.5-26.45 67.45-25.03 68.4-23.6 70-22.5 71.6-21.4 74.55-19.75L74.55-19.75Q77.7-18.05 79.75-16.55 81.8-15.05 83.05-13.05 84.3-11.05 84.3-8.4L84.3-8.4Q84.3-6 83.12-3.95 81.95-1.9 79.35-0.63 76.75 0.65 72.65 0.65L72.65 0.65ZM114.69-3.15Q115.04-2.5 115.04-1.9L115.04-1.9Q115.04-0.75 114.09-0.03 113.14 0.7 111.84 0.7L111.84 0.7Q108.59 0.7 106.99-4.25L106.99-4.25 104.89-10.9Q104.24-12.6 103.49-13.7 102.74-14.8 101.12-15.53 99.49-16.25 96.74-16.25L96.74-16.25 95.49-16.25 95.49-5.7Q95.49-2.05 96.14-0.35L96.14-0.35Q95.09 0.55 93.79 0.55L93.79 0.55Q92.79 0.55 92.14-0.05 91.49-0.65 91.49-1.65L91.49-1.65 91.44-28.85Q91.44-32.3 90.79-34.2L90.79-34.2Q91.84-35.1 93.14-35.1L93.14-35.1Q94.19-35.1 94.82-34.52 95.44-33.95 95.44-32.9L95.44-32.9 95.49-18.1 96.89-18.25Q100.19-18.65 102.57-20.63 104.94-22.6 106.17-25.35 107.39-28.1 107.39-30.7L107.39-30.7Q107.39-33.1 106.49-34.5L106.49-34.5Q107.39-35.1 108.34-35.1L108.34-35.1Q109.54-35.1 110.44-34.08 111.34-33.05 111.34-30.7L111.34-30.7Q111.34-26.75 108.89-23.1 106.44-19.45 101.49-17.6L101.49-17.6Q104.39-17.15 106.02-15.75 107.64-14.35 108.54-11.95L108.54-11.95 110.89-5.25Q111.54-3.75 112.04-3.18 112.54-2.6 113.29-2.55L113.29-2.55 113.44-2.55Q114.14-2.55 114.69-3.15L114.69-3.15ZM140.79-34.65Q141.49-34.65 141.49-33.55L141.49-33.55Q141.49-32.8 141.17-32.05 140.84-31.3 140.34-31.1L140.34-31.1 139.04-31.4Q133.84-32.55 131.09-32.75L131.09-32.75 131.14-5.7Q131.14-2.05 131.79-0.35L131.79-0.35Q130.74 0.55 129.44 0.55L129.44 0.55Q128.44 0.55 127.79-0.05 127.14-0.65 127.14-1.65L127.14-1.65 127.09-32.75Q125.29-32.6 123.52-32.27 121.74-31.95 118.99-31.35L118.99-31.35 117.89-31.1Q117.39-31.3 117.07-32.05 116.74-32.8 116.74-33.55L116.74-33.55Q116.74-34.65 117.44-34.65L117.44-34.65 140.79-34.65ZM158.54 0.65Q152.04 0.65 148.64-3.85 145.24-8.35 145.24-17.3L145.24-17.3Q145.24-26.3 148.64-30.8 152.04-35.3 158.54-35.3L158.54-35.3Q165.09-35.3 168.49-30.8 171.89-26.3 171.89-17.3L171.89-17.3Q171.89-8.3 168.49-3.83 165.09 0.65 158.54 0.65L158.54 0.65ZM158.54-1.2Q162.99-1.2 165.21-5.13 167.44-9.05 167.44-17.3L167.44-17.3Q167.44-25.6 165.21-29.53 162.99-33.45 158.54-33.45L158.54-33.45Q154.14-33.45 151.91-29.5 149.69-25.55 149.69-17.3L149.69-17.3Q149.69-9.05 151.91-5.13 154.14-1.2 158.54-1.2L158.54-1.2ZM186.04-35.3Q193.39-35.3 196.89-32.83 200.39-30.35 200.39-25.1L200.39-25.1Q200.39-13.8 185.09-13.8L185.09-13.8 183.69-13.8 183.69-5.55Q183.69-4.35 183.84-2.8 183.99-1.25 184.34-0.35L184.34-0.35Q183.99 0 183.39 0.28 182.79 0.55 182.04 0.55L182.04 0.55Q180.99 0.55 180.34-0.05 179.69-0.65 179.64-1.65L179.64-1.65 179.64-28.85Q179.64-30.05 179.49-31.63 179.34-33.2 178.99-34.2L178.99-34.2Q181.09-35.3 186.04-35.3L186.04-35.3ZM185.19-15.6Q190.79-15.6 193.39-17.9 195.99-20.2 195.99-24.85L195.99-24.85Q195.99-29.2 193.59-31.33 191.19-33.45 185.89-33.45L185.89-33.45Q184.14-33.45 183.69-33.35L183.69-33.35 183.69-15.6 185.19-15.6ZM251.48-5.7Q251.48-2.1 252.08-0.35L252.08-0.35Q251.03 0.55 249.73 0.55L249.73 0.55Q248.78 0.55 248.18-0.05 247.58-0.65 247.58-1.65L247.58-1.65 247.48-29.8 236.53-5.45Q235.33-5 234.33-5L234.33-5Q233.43-5 232.73-5.35L232.73-5.35Q227.08-16.05 220.93-29.65L220.93-29.65 220.98-5.7Q220.98-1.95 221.63-0.05L221.63-0.05Q220.93 0.55 219.98 0.55L219.98 0.55Q218.53 0.55 218.53-1.3L218.53-1.3 218.48-28.95Q218.48-32.5 218.18-34.5L218.18-34.5Q218.78-35.1 220.83-35.1L220.83-35.1Q222.18-35.1 222.93-34.3L222.93-34.3 227.08-25.55 235.13-8.85Q236.13-11.05 242.08-24.6L242.08-24.6Q243.58-28.15 244.68-30.65 245.78-33.15 246.48-34.7L246.48-34.7Q247.53-35.1 248.93-35.1L248.93-35.1Q249.88-35.1 250.61-34.75 251.33-34.4 251.38-33.9L251.38-33.9 251.48-5.7ZM284.18-2.75Q284.73-1.1 285.38-0.4L285.38-0.4Q284.53 0.55 283.03 0.55L283.03 0.55Q282.08 0.55 281.38 0.13 280.68-0.3 280.48-1.1L280.48-1.1 277.43-11 264.33-11 261.83-2.65Q261.53-1.55 261.53-1L261.53-1Q261.53-0.2 261.83 0.15L261.83 0.15Q260.78 0.55 259.63 0.55L259.63 0.55Q257.33 0.55 257.33-1.3L257.33-1.3Q257.33-1.95 257.83-3.55L257.83-3.55 268.43-34.65Q270.08-35.3 271.73-35.3L271.73-35.3Q273.68-35.3 274.13-33.8L274.13-33.8 284.18-2.75ZM265.08-13.4L276.73-13.4 270.83-32.6 265.08-13.4ZM291.88 0.55Q290.83 0.55 290.08-0.05L290.08-0.05Q290.68-1.85 290.68-5.7L290.68-5.7 290.63-28.6Q290.63-32.6 290.28-34.5L290.28-34.5Q290.83-35 292.18-35L292.18-35Q293.18-35 293.38-34.75L293.38-34.75Q308.78-12.6 312.88-5.55L312.88-5.55 312.03-30.45Q311.93-32.15 312.28-33.35 312.63-34.55 313.38-34.9L313.38-34.9Q313.58-34.95 314.08-34.95L314.08-34.95Q314.73-34.95 315.18-34.75L315.18-34.75Q315.13-34.2 315.23-32.75L315.23-32.75 315.28-31.15 315.28-5.65Q315.28-1.8 315.53-0.05L315.53-0.05Q315.33 0.2 314.78 0.35 314.23 0.5 313.68 0.5L313.68 0.5Q313.18 0.5 312.68 0.3L312.68 0.3Q307.78-5.65 302.45-13.68 297.13-21.7 293.18-28.4L293.18-28.4 293.93-1.9Q293.98-0.8 293.35-0.13 292.73 0.55 291.88 0.55L291.88 0.55ZM347.97-2.75Q348.52-1.1 349.17-0.4L349.17-0.4Q348.32 0.55 346.82 0.55L346.82 0.55Q345.87 0.55 345.17 0.13 344.47-0.3 344.27-1.1L344.27-1.1 341.22-11 328.12-11 325.62-2.65Q325.32-1.55 325.32-1L325.32-1Q325.32-0.2 325.62 0.15L325.62 0.15Q324.57 0.55 323.42 0.55L323.42 0.55Q321.12 0.55 321.12-1.3L321.12-1.3Q321.12-1.95 321.62-3.55L321.62-3.55 332.22-34.65Q333.87-35.3 335.52-35.3L335.52-35.3Q337.47-35.3 337.92-33.8L337.92-33.8 347.97-2.75ZM328.87-13.4L340.52-13.4 334.62-32.6 328.87-13.4ZM366.42 0.65Q359.72 0.65 356.15-3.98 352.57-8.6 352.57-17.3L352.57-17.3Q352.57-26 356.22-30.65 359.87-35.3 366.52-35.3L366.52-35.3Q369.02-35.3 371.27-34.63 373.52-33.95 374.9-32.8 376.27-31.65 376.27-30.35L376.27-30.35Q376.27-29.3 375.37-28.6 374.47-27.9 373.02-28.05L373.02-28.05Q372.62-30.65 370.92-32.05 369.22-33.45 366.62-33.45L366.62-33.45Q357.02-33.45 357.02-17.3L357.02-17.3Q357.02-1.2 366.57-1.2L366.57-1.2Q370.87-1.2 372.42-4.17 373.97-7.15 373.97-11.05L373.97-11.05Q373.97-17.1 370.27-17.9L370.27-17.9Q370.47-18.65 371.17-19.03 371.87-19.4 372.92-19.4L372.92-19.4Q375.17-19.4 376.62-17.57 378.07-15.75 378.07-11.8L378.07-11.8Q378.07-8.5 376.82-5.65 375.57-2.8 372.97-1.07 370.37 0.65 366.42 0.65L366.42 0.65ZM404.07-3.6Q404.47-3.4 404.69-2.83 404.92-2.25 404.92-1.6L404.92-1.6Q404.92-0.9 404.67-0.45 404.42 0 403.92 0L403.92 0 388.02 0Q386.97 0 386.34-0.6 385.72-1.2 385.72-2.25L385.72-2.25 385.67-28.45Q385.67-31.7 385.02-33.6L385.02-33.6Q385.72-34.2 386.44-34.43 387.17-34.65 388.47-34.65L388.47-34.65 403.57-34.65Q403.92-34.65 404.12-34.33 404.32-34 404.32-33.5L404.32-33.5Q404.32-32.8 403.99-32.05 403.67-31.3 403.17-31.1L403.17-31.1Q396.02-32.35 389.67-32.4L389.67-32.4 389.67-19.4 401.97-19.4Q402.12-18.8 402.12-18.2L402.12-18.2Q402.12-17.6 401.97-17L401.97-17 389.72-17 389.72-2.2Q395.97-2.25 404.07-3.6L404.07-3.6ZM436.62-3.3Q436.92-2.7 436.92-2L436.92-2Q436.92-0.8 435.92-0.13 434.92 0.55 433.92 0.55L433.92 0.55Q432.07 0.55 430.99-0.63 429.92-1.8 428.87-4.4L428.87-4.4 426.57-10.3Q425.87-12 425.29-12.95 424.72-13.9 423.52-14.58 422.32-15.25 420.27-15.25L420.27-15.25 416.57-15.3 416.57-5.55Q416.57-4.35 416.72-2.8 416.87-1.25 417.22-0.35L417.22-0.35Q416.87 0 416.27 0.28 415.67 0.55 414.92 0.55L414.92 0.55Q413.87 0.55 413.22-0.05 412.57-0.65 412.52-1.65L412.52-1.65 412.52-28.85Q412.52-30.05 412.37-31.63 412.22-33.2 411.87-34.2L411.87-34.2Q413.97-35.3 419.22-35.3L419.22-35.3Q426.37-35.3 429.77-33.08 433.17-30.85 433.17-25.85L433.17-25.85Q433.17-22.25 431.09-19.75 429.02-17.25 425.52-16.35L425.52-16.35Q427.27-15.85 428.34-14.58 429.42-13.3 430.32-11.3L430.32-11.3 432.82-5.4Q433.42-3.95 433.97-3.33 434.52-2.7 435.17-2.65L435.17-2.65Q436.07-2.65 436.62-3.3L436.62-3.3ZM416.57-17.1L420.47-17.05Q424.12-17.15 426.44-19.45 428.77-21.75 428.77-25.5L428.77-25.5Q428.77-29.6 426.54-31.55 424.32-33.5 419.42-33.5L419.42-33.5Q417.47-33.5 416.57-33.35L416.57-33.35 416.57-17.1Z" opacity="1" transform="matrix(1,0,0,1,0,0)" fill="#1b2141" class="wordmark-text-0" data-fill-palette-color="primary" id="text-0"></path></svg></g></svg></g></svg></g></svg></g><g transform="matrix(1,0,0,1,140.02139090573013,0)"><svg viewBox="0 0 36.373218188539745 36.373218188539745" height="36.373218188539745" width="36.373218188539745"><g><svg xmlns="http://www.w3.org/2000/svg" xmlns:xlink="http://www.w3.org/1999/xlink" version="1.1" x="0" y="0" viewBox="14 14 72 72" enable-background="new 0 0 100 100" xml:space="preserve" height="36.373218188539745" width="36.373218188539745" class="icon-icon-0" data-fill-palette-color="accent" id="icon-0"><path d="M14 14V77H41V86H59V77H86V14zM77 59H23V23H77z" fill="#1b2141" data-fill-palette-color="accent"></path></svg></g></svg></g><g></g></svg></g></svg></g></svg></g><g><path d="M0 247.2v-247.2h395.52v247.2zM393.147 244.827v-242.453h-390.774v242.453z" fill="#1b2141" fill-rule="nonzero" stroke="none" stroke-width="1" stroke-linecap="butt" stroke-linejoin="miter" stroke-miterlimit="10" stroke-dasharray="" stroke-dashoffset="0" font-family="none" font-weight="none" font-size="none" text-anchor="none" style="mix-blend-mode: normal" data-fill-palette-color="tertiary"></path></g></svg></g><defs></defs></svg><rect width="395.52" height="247.2" fill="none" stroke="none" visibility="hidden"></rect></g></svg></g></svg>