<svg xmlns="http://www.w3.org/2000/svg" version="1.1" xmlns:xlink="http://www.w3.org/1999/xlink" xmlns:svgjs="http://svgjs.dev/svgjs" width="2000" height="1250" viewBox="0 0 2000 1250"><g transform="matrix(1,0,0,1,0,0)"><svg viewBox="0 0 512 320" data-background-color="#ffffff" preserveAspectRatio="xMidYMid meet" height="1250" width="2000" xmlns="http://www.w3.org/2000/svg" xmlns:xlink="http://www.w3.org/1999/xlink"><g id="tight-bounds" transform="matrix(1,0,0,1,0,0)"><svg viewBox="0 0 512 320" height="320" width="512"><g><svg></svg></g><g><svg viewBox="0 0 512 320" height="320" width="512"><g><path transform="translate(256,160) scale(226.27417,226.27417)" d="M-0.707 0.707l0-1.414 1.414 0 0 1.414z" fill="#0c0a0f" fill-rule="nonzero" stroke="none" stroke-width="1" stroke-linecap="butt" stroke-linejoin="miter" stroke-miterlimit="10" stroke-dasharray="" stroke-dashoffset="0" font-family="none" font-weight="none" font-size="none" text-anchor="none" style="mix-blend-mode: normal" data-fill-palette-color="tertiary"></path></g><g transform="matrix(1,0,0,1,140.8,88.28790684904116)"><svg viewBox="0 0 230.4 143.42418630191767" height="143.42418630191767" width="230.4"><g><svg viewBox="0 0 230.4 143.42418630191767" height="143.42418630191767" width="230.4"><g transform="matrix(1,0,0,1,0,94.21762362360136)"><svg viewBox="0 0 230.4 49.20656267831631" height="49.20656267831631" width="230.4"><g id="textblocktransform"><svg viewBox="0 0 230.4 49.20656267831631" height="49.20656267831631" width="230.4" id="textblock"><g><svg viewBox="0 0 230.4 49.20656267831631" height="49.20656267831631" width="230.4"><g transform="matrix(1,0,0,1,0,0)"><svg width="230.4" viewBox="2.1160220536149716 -43.60037458078785 318.3409906383136 67.98811845588133" height="49.20656267831631" data-palette-color="#ffffff"><path d="M17.875-12.966v0c0 0 2.125-0.511 6.375-1.534v0c0.373-0.072 0.623-0.08 0.749-0.023 0.128 0.063 0.3 0.319 0.516 0.766 0.222 0.446 0.374 0.875 0.453 1.287 0.081 0.419 0.089 0.669 0.024 0.749-0.072 0.082-0.226 0.146-0.462 0.192v0l-5.331 1.035c0.131 0.151 0.272 0.314 0.421 0.489 0.148 0.168 0.354 0.461 0.619 0.878 0.263 0.411 0.486 1.084 0.668 2.02 0.182 0.936 0.142 1.955-0.119 3.059-0.261 1.103-0.754 2.133-1.478 3.088v0c-1.608 2.139-3.967 3.511-7.075 4.115v0c-0.811 0.158-1.734 0.181-2.768 0.069v0c-0.193 0.302-0.467 0.6-0.825 0.894-0.357 0.294-0.707 0.589-1.05 0.886v0c-0.856 0.73-1.232 1.367-1.126 1.91v0c0.264 1.361 2.658 1.62 7.179 0.775 4.515-0.843 7.509-1.272 8.98-1.286 1.466-0.006 2.667 0.304 3.603 0.93v0c1.471 0.998 2.36 2.289 2.668 3.872v0c0.263 1.355-0.051 2.866-0.943 4.533v0c-1.534 2.94-4.306 5.241-8.317 6.903v0c-1.427 0.59-2.975 1.047-4.643 1.371v0c-3.023 0.587-5.423 0.487-7.2-0.303-1.784-0.794-2.827-1.967-3.128-3.518v0c-0.164-0.844-0.1-1.583 0.19-2.217 0.292-0.627 0.699-1.246 1.219-1.856 0.528-0.605 1.106-1.247 1.734-1.926 0.635-0.68 1.206-1.501 1.712-2.462v0c-1.563 0.168-2.973-0.064-4.23-0.696-1.258-0.638-1.967-1.367-2.126-2.185-0.158-0.811-0.059-1.456 0.297-1.932 0.356-0.477 0.817-0.916 1.384-1.318 0.567-0.402 1.171-0.788 1.813-1.157 0.647-0.377 1.188-0.808 1.623-1.293v0c-1.929-0.352-3.502-1.055-4.719-2.109-1.215-1.047-1.966-2.307-2.252-3.78v0c-0.531-2.736 0.03-5.16 1.683-7.274 1.654-2.114 3.891-3.445 6.712-3.994 2.814-0.547 5.204-0.199 7.17 1.042zM9.702 14.599c-0.308 0.44-0.543 0.893-0.704 1.359-0.154 0.465-0.17 1.011-0.048 1.639 0.123 0.635 0.478 1.255 1.065 1.861 0.593 0.605 1.337 1.112 2.231 1.523v0c1.977 0.947 4.179 1.185 6.607 0.713 2.434-0.473 4.502-1.611 6.203-3.416 1.702-1.798 2.389-3.541 2.06-5.229-0.328-1.688-1.363-2.662-3.104-2.921v0c-0.822-0.105-2.829 0.118-6.022 0.67-3.2 0.554-5.282 0.866-6.246 0.939v0c-0.325 0.566-0.671 1.074-1.038 1.526-0.367 0.452-0.702 0.897-1.004 1.336zM17.968-6.352c-0.439-2.258-1.361-3.983-2.768-5.177-1.402-1.201-3.028-1.622-4.88-1.263v0c-2.402 0.467-3.881 1.925-4.437 4.377v0c-0.212 0.938-0.209 1.966 0.009 3.085v0c0.445 2.291 1.286 4.103 2.523 5.438v0c1.507 1.602 3.196 2.221 5.067 1.858 1.872-0.364 3.195-1.276 3.971-2.738 0.781-1.469 0.953-3.329 0.515-5.58zM45.27-1.113c0.067 0.415 0.318 0.715 0.753 0.901 0.435 0.186 0.91 0.238 1.423 0.156 0.513-0.083 0.923-0.284 1.23-0.603 0.299-0.325 0.514-0.498 0.645-0.52 0.125-0.02 0.216 0.144 0.272 0.493 0.055 0.342-0.056 0.661-0.332 0.955v0c-2.13 2.16-3.623 3.309-4.479 3.447v0c-1.027 0.166-2.035-0.769-3.024-2.804v0c-0.073-0.157-0.124-0.223-0.154-0.198v0c-1.753 1.816-2.865 2.92-3.335 3.313v0c-1.194 0.969-2.498 1.301-3.912 0.995-1.406-0.3-2.504-0.997-3.295-2.092v0c-0.388-0.565-0.638-1.194-0.749-1.885v0c-0.221-1.369 0.111-2.537 0.995-3.503 0.884-0.966 2.691-2.051 5.421-3.254v0c0.926-0.413 1.732-0.88 2.417-1.403 0.692-0.524 1.049-0.844 1.071-0.963 0.028-0.119 0.034-0.228 0.018-0.327v0l-0.747-4.63c-0.293-1.817-1.21-2.982-2.751-3.496v0c-0.5-0.169-1.076-0.201-1.728-0.097-0.652 0.105-1.271 0.472-1.858 1.1-0.582 0.621-0.797 1.405-0.644 2.353v0l0.271 0.928c-0.068 0.207-0.596 0.619-1.583 1.238-0.993 0.626-1.566 0.968-1.718 1.027v0c-0.257 0.041-0.435-0.247-0.535-0.866-0.101-0.625-0.027-1.343 0.22-2.153 0.247-0.816 0.658-1.595 1.234-2.336v0c1.344-1.716 3.03-2.737 5.057-3.064 2.027-0.327 3.766-0.033 5.217 0.881 1.451 0.914 2.3 2.141 2.548 3.681v0zM34.031-0.02c0.124 0.77 0.529 1.394 1.213 1.871 0.691 0.476 1.419 0.652 2.182 0.529 0.763-0.123 1.639-0.599 2.626-1.426 0.994-0.829 1.435-1.589 1.324-2.28v0l-0.791-4.907c-0.029-0.178-0.086-0.26-0.171-0.246-0.079 0.013-0.133 0.032-0.163 0.057v0l-5.178 3.509c-0.512 0.508-0.847 0.923-1.004 1.246-0.151 0.321-0.164 0.87-0.038 1.647zM83.002-9.43v0l-0.655-5.118c-0.246-2.086-0.594-3.528-1.045-4.328-0.458-0.805-0.986-1.387-1.585-1.746-0.6-0.365-1.367-0.493-2.301-0.383-0.934 0.11-2.817 1.071-5.651 2.883v0c-0.375 0.293-0.56 0.543-0.556 0.75v0l1.543 13.069c0.193 1.635 1.178 2.469 2.954 2.501v0c0.775 0.023 1.177 0.16 1.206 0.412 0.03 0.252-0.033 0.403-0.188 0.455v0l-10.834 1.279c-0.163-0.014-0.256-0.118-0.279-0.309v0c-0.037-0.311 0.319-0.568 1.067-0.771v0c1.72-0.445 2.483-1.485 2.29-3.12v0l-1.428-12.096c-0.3-2.542-2.023-3.628-5.167-3.256v0c-1.145 0.135-2.657 1.005-4.536 2.61v0c-0.477 0.399-0.82 0.758-1.03 1.078v0l1.525 12.92c0.193 1.635 1.178 2.469 2.954 2.501v0c0.775 0.023 1.177 0.16 1.206 0.411 0.03 0.252-0.036 0.404-0.197 0.457v0l-10.825 1.278c-0.163-0.014-0.256-0.118-0.278-0.31v0c-0.037-0.311 0.319-0.568 1.067-0.77v0c1.72-0.445 2.485-1.468 2.295-3.071v0l-1.652-13.992c-0.08-0.675-0.509-1.098-1.287-1.268v0c-0.338-0.081-0.697-0.136-1.077-0.165-0.379-0.029-0.682-0.06-0.907-0.094-0.226-0.04-0.373-0.087-0.44-0.14-0.059-0.047-0.1-0.163-0.121-0.348-0.022-0.185 0.079-0.358 0.301-0.519v0l5.853-3.641c0.18-0.122 0.294-0.186 0.34-0.191v0c0.278-0.033 0.44 0.146 0.486 0.536v0l0.475 4.022c0.025 0.098 0.09 0.14 0.197 0.128 0.106-0.013 0.361-0.157 0.764-0.432 0.404-0.276 0.929-0.663 1.575-1.163 0.647-0.493 1.507-1.081 2.581-1.765 1.08-0.685 2.26-1.103 3.537-1.253v0c2.052-0.242 3.629 0.464 4.731 2.12v0c0.422 0.675 0.766 0.943 1.032 0.804 0.259-0.138 0.663-0.387 1.211-0.747v0c1.297-0.845 2.612-1.671 3.946-2.48 1.327-0.815 2.454-1.277 3.381-1.386v0c3.734-0.441 6.003 2.745 6.807 9.558v0l0.619 7.116 0.167 1.411c0.149 1.258 0.878 2.008 2.188 2.248v0c0.557 0.115 1.085 0.181 1.584 0.196 0.505 0.014 0.838 0.045 0.998 0.094 0.159 0.042 0.251 0.162 0.274 0.36 0.023 0.192-0.043 0.314-0.198 0.366v0l-11.699 1.381c-0.169-0.014-0.265-0.116-0.288-0.308v0c-0.037-0.311 0.319-0.568 1.067-0.771v0c1.706-0.443 2.455-1.549 2.247-3.316v0c0.03-0.823-0.051-2.052-0.244-3.687zM110.593-17.065l-14.138 1.093c-0.279 0.022-0.373 0.624-0.282 1.807v0c0.195 2.519 1.106 4.575 2.734 6.168 1.627 1.586 3.551 2.293 5.771 2.121 2.213-0.171 4.27-1.293 6.169-3.365v0c0.031-0.036 0.073-0.056 0.125-0.06v0l0.12-0.01c0.1-0.008 0.199 0.062 0.297 0.208 0.099 0.153 0.193 0.249 0.283 0.289v0c-1.71 2.439-3.808 4.196-6.292 5.271v0c-0.854 0.374-1.832 0.603-2.936 0.688-1.103 0.085-2.247-0.134-3.431-0.657-1.19-0.516-2.229-1.238-3.116-2.166v0c-1.881-1.934-2.941-4.44-3.179-7.517-0.238-3.077 0.482-5.958 2.16-8.643 1.685-2.678 4.17-4.144 7.453-4.397v0c2.353-0.182 4.358 0.719 6.016 2.704 1.658 1.991 2.549 3.785 2.673 5.38v0c0.054 0.698-0.089 1.06-0.427 1.086zM96.52-18.625l0.023 0.289c0.024 0.306 0.182 0.447 0.474 0.425v0l9.182-0.71c0.425-0.033 0.619-0.299 0.581-0.797v0c-0.09-1.17-0.708-2.329-1.854-3.478-1.145-1.148-2.343-1.674-3.592-1.577v0c-1.216 0.094-2.28 0.735-3.192 1.921-0.918 1.181-1.459 2.49-1.622 3.927zM161.043-13.266v0l-0.13-5.159c-0.033-2.1-0.232-3.57-0.598-4.411-0.373-0.848-0.84-1.48-1.4-1.899-0.56-0.425-1.31-0.63-2.25-0.615-0.94 0.015-2.912 0.779-5.915 2.292v0c-0.403 0.253-0.613 0.483-0.629 0.69v0l0.204 13.158c0.026 1.646 0.92 2.576 2.683 2.789v0c0.768 0.101 1.154 0.279 1.159 0.532 0.004 0.253-0.074 0.398-0.234 0.434v0l-10.908 0.169c-0.161-0.031-0.242-0.143-0.246-0.336v0c-0.005-0.313 0.375-0.533 1.14-0.658v0c1.756-0.267 2.621-1.224 2.596-2.871v0l-0.189-12.178c-0.04-2.56-1.643-3.815-4.809-3.766v0c-1.153 0.018-2.746 0.729-4.777 2.134v0c-0.515 0.348-0.893 0.671-1.135 0.968v0l0.201 13.009c0.026 1.646 0.92 2.576 2.684 2.788v0c0.768 0.101 1.154 0.279 1.158 0.532 0.004 0.253-0.077 0.398-0.243 0.434v0l-10.899 0.169c-0.161-0.031-0.242-0.143-0.245-0.336v0c-0.005-0.313 0.375-0.533 1.14-0.658v0c1.756-0.267 2.622-1.207 2.597-2.82v0l-0.219-14.089c-0.011-0.68-0.394-1.144-1.152-1.392v0c-0.328-0.115-0.68-0.206-1.054-0.274-0.374-0.068-0.672-0.13-0.893-0.186-0.221-0.063-0.362-0.124-0.423-0.183-0.054-0.052-0.083-0.172-0.085-0.359-0.003-0.187 0.115-0.348 0.352-0.486v0l6.194-3.026c0.192-0.103 0.311-0.155 0.358-0.156v0c0.28-0.004 0.423 0.19 0.429 0.584v0l0.062 4.049c0.015 0.1 0.076 0.149 0.183 0.148 0.107-0.002 0.375-0.119 0.804-0.353 0.43-0.233 0.991-0.565 1.685-0.996 0.694-0.424 1.609-0.922 2.747-1.493 1.145-0.571 2.36-0.867 3.647-0.887v0c2.066-0.032 3.563 0.832 4.491 2.591v0c0.351 0.715 0.666 1.016 0.944 0.906 0.272-0.111 0.698-0.318 1.28-0.62v0c1.376-0.708 2.769-1.396 4.179-2.065 1.403-0.675 2.571-1.02 3.504-1.035v0c3.76-0.058 5.692 3.342 5.799 10.201v0l-0.109 7.143 0.022 1.42c0.02 1.267 0.669 2.087 1.948 2.46v0c0.543 0.172 1.061 0.29 1.556 0.356 0.501 0.066 0.829 0.131 0.983 0.195 0.154 0.058 0.233 0.186 0.236 0.386 0.003 0.193-0.075 0.308-0.235 0.344v0l-11.778 0.182c-0.167-0.031-0.252-0.143-0.255-0.336v0c-0.005-0.313 0.375-0.533 1.14-0.658v0c1.743-0.267 2.6-1.29 2.572-3.07v0c0.114-0.815 0.158-2.046 0.133-3.692zM171.227-16.604c0.089-3.199 1.303-5.919 3.639-8.162 2.337-2.242 5.095-3.319 8.273-3.23 3.179 0.089 5.91 1.286 8.193 3.591 2.283 2.305 3.379 5.103 3.287 8.395-0.092 3.292-1.282 6.033-3.571 8.223-2.282 2.197-5.103 3.249-8.461 3.155-3.359-0.094-6.112-1.311-8.262-3.652-2.155-2.348-3.188-5.121-3.098-8.32zM177.138-10.136v0c1.524 2.73 3.663 4.134 6.415 4.211v0c2.132 0.06 3.789-0.751 4.97-2.433 1.181-1.674 1.806-3.758 1.875-6.25 0.07-2.492-0.652-5.074-2.164-7.743-1.519-2.67-3.622-4.043-6.308-4.118v0c-1.973-0.055-3.549 0.754-4.729 2.429-1.18 1.668-1.807 3.811-1.881 6.43-0.073 2.612 0.534 5.104 1.822 7.474zM213.878-25.407c0.702 0.299 1.134 0.453 1.294 0.463 0.166 0.011 0.27 0.014 0.31 0.01 0.04-0.004 0.1-0.104 0.179-0.3v0l0.801-12.584c0.044-0.685-0.302-1.182-1.038-1.489v0c-0.312-0.133-0.656-0.249-1.03-0.346-0.368-0.097-0.66-0.186-0.875-0.266-0.215-0.081-0.348-0.149-0.397-0.206-0.056-0.064-0.078-0.189-0.067-0.375 0.012-0.186 0.145-0.335 0.399-0.445v0l6.404-2.539c0.199-0.081 0.325-0.12 0.379-0.116v0c0.273 0.017 0.397 0.219 0.372 0.605v0l-2.21 34.739c0.041 0.724 0.211 1.249 0.51 1.576 0.306 0.333 0.825 0.523 1.557 0.57v0l1.424-0.01c0.1 0.006 0.144 0.103 0.132 0.289-0.012 0.186-0.144 0.328-0.398 0.426v0l-6.658 2.272c-0.199 0.088-0.369 0.127-0.508 0.118-0.14-0.009-0.197-0.216-0.171-0.622v0l0.142-2.226c0.01-0.16-0.025-0.242-0.105-0.247v0c-0.113-0.007-0.812 0.316-2.096 0.969v0c-3.935 2.001-7.153 2.13-9.654 0.388v0c-2.002-1.397-3.281-3.495-3.838-6.297v0c-0.258-1.306-0.341-2.677-0.249-4.114 0.091-1.437 0.479-2.849 1.161-4.235 0.683-1.386 1.581-2.585 2.694-3.596v0c2.438-2.196 5.277-3.191 8.517-2.985v0c1.317 0.084 2.324 0.275 3.02 0.573zM202.215-15.638c-0.157 2.462 0.388 4.661 1.634 6.597 1.253 1.93 3.097 2.973 5.533 3.128v0c1.078 0.069 2.202-0.124 3.373-0.577 1.172-0.46 1.766-0.826 1.783-1.099v0l0.802-12.595c0.019-0.306-0.17-0.686-0.569-1.138v0c-1.183-1.872-2.853-2.877-5.009-3.014-2.156-0.137-3.913 0.663-5.273 2.4-1.36 1.737-2.118 3.837-2.274 6.298zM240.788-23.062c0.692 0.323 1.117 0.492 1.276 0.508 0.166 0.016 0.269 0.023 0.31 0.02 0.04-0.003 0.104-0.1 0.189-0.293v0l1.236-12.549c0.067-0.683-0.261-1.191-0.985-1.524v0c-0.307-0.144-0.647-0.271-1.018-0.381-0.364-0.11-0.653-0.208-0.865-0.297-0.212-0.088-0.343-0.161-0.39-0.219-0.054-0.066-0.072-0.191-0.053-0.377 0.018-0.186 0.156-0.33 0.414-0.431v0l6.488-2.316c0.202-0.074 0.329-0.108 0.382-0.103v0c0.272 0.027 0.389 0.233 0.351 0.618v0l-3.412 34.642c0.016 0.725 0.168 1.256 0.457 1.592 0.294 0.344 0.806 0.552 1.536 0.624v0l1.423 0.04c0.1 0.01 0.14 0.108 0.122 0.293-0.018 0.186-0.156 0.323-0.413 0.412v0l-6.732 2.04c-0.202 0.081-0.373 0.114-0.512 0.1-0.139-0.014-0.189-0.223-0.149-0.628v0l0.218-2.219c0.016-0.159-0.016-0.243-0.096-0.251v0c-0.113-0.011-0.822 0.287-2.128 0.896v0c-4.002 1.863-7.222 1.881-9.662 0.053v0c-1.952-1.465-3.158-3.607-3.617-6.425v0c-0.212-1.314-0.248-2.687-0.107-4.12 0.141-1.433 0.577-2.83 1.307-4.192 0.73-1.362 1.669-2.529 2.817-3.501v0c2.512-2.111 5.384-3.007 8.615-2.689v0c1.314 0.129 2.313 0.355 2.998 0.677zM228.793-13.702c-0.242 2.455 0.227 4.671 1.405 6.649 1.186 1.972 2.993 3.078 5.421 3.318v0c1.075 0.106 2.205-0.047 3.391-0.46 1.187-0.419 1.794-0.765 1.821-1.037v0l1.236-12.559c0.03-0.305-0.146-0.691-0.529-1.157v0c-1.118-1.912-2.752-2.974-4.901-3.186-2.15-0.212-3.934 0.527-5.353 2.216-1.419 1.689-2.249 3.761-2.491 6.216zM260.694 1.028l-10.816-1.354c-0.155-0.053-0.22-0.175-0.196-0.367v0c0.036-0.291 0.441-0.439 1.215-0.442v0c1.779-0.039 2.767-0.853 2.966-2.441v0l1.606-12.83c0.084-0.675-0.23-1.191-0.945-1.549v0c-0.31-0.153-0.646-0.289-1.007-0.408-0.361-0.119-0.647-0.225-0.857-0.319-0.211-0.087-0.342-0.164-0.394-0.231-0.046-0.06-0.057-0.185-0.034-0.377 0.023-0.185 0.162-0.326 0.416-0.422v0l6.557-2.142c0.203-0.069 0.328-0.1 0.374-0.094v0c0.278 0.035 0.393 0.244 0.345 0.628v0l-2.281 18.217c-0.199 1.588 0.559 2.62 2.273 3.097v0c0.748 0.194 1.108 0.411 1.078 0.649-0.031 0.245-0.131 0.373-0.3 0.385zM258.607-28.993c-0.675-0.084-1.24-0.37-1.697-0.858-0.457-0.481-0.639-1.098-0.544-1.852 0.094-0.754 0.414-1.319 0.958-1.694 0.538-0.376 1.144-0.522 1.818-0.437 0.668 0.084 1.201 0.416 1.599 0.996 0.392 0.573 0.55 1.157 0.476 1.753-0.075 0.602-0.362 1.12-0.86 1.555-0.499 0.441-1.082 0.62-1.75 0.537zM282.445-3.426v0l0.736-5.107c0.32-2.076 0.366-3.559 0.139-4.451-0.226-0.898-0.58-1.6-1.062-2.106-0.481-0.512-1.186-0.84-2.114-0.983-0.922-0.142-2.994 0.281-6.216 1.268v0c-0.439 0.182-0.685 0.373-0.736 0.575v0l-2.003 13.007c-0.251 1.627 0.476 2.694 2.179 3.199v0c0.74 0.229 1.091 0.468 1.053 0.718-0.039 0.25-0.139 0.38-0.303 0.389v0l-10.773-1.659c-0.16-0.058-0.225-0.183-0.195-0.374v0c0.048-0.31 0.459-0.462 1.234-0.458v0c1.776 0.031 2.789-0.768 3.04-2.395v0l2.136-13.876c0.103-0.672-0.194-1.193-0.892-1.564v0c-0.305-0.168-0.639-0.318-1.004-0.448-0.358-0.129-0.641-0.24-0.849-0.334-0.207-0.099-0.333-0.183-0.376-0.25-0.051-0.062-0.063-0.185-0.034-0.369 0.028-0.184 0.175-0.324 0.438-0.418v0l6.604-1.948c0.213-0.068 0.342-0.099 0.388-0.092v0c0.27 0.042 0.375 0.257 0.316 0.646v0l-0.58 3.765c0.028 0.166 0.082 0.255 0.161 0.268v0c0.099 0.015 0.467-0.076 1.105-0.275v0c1.49-0.479 2.986-0.93 4.488-1.353 1.503-0.43 2.712-0.574 3.628-0.433v0c3.723 0.573 5.062 4.25 4.018 11.03v0l-1.304 7.024-0.216 1.403c-0.193 1.252 0.307 2.169 1.499 2.75v0c0.506 0.26 1.001 0.464 1.484 0.613 0.476 0.148 0.785 0.266 0.927 0.355 0.149 0.084 0.208 0.224 0.178 0.422-0.029 0.191-0.129 0.29-0.299 0.298v0l-11.643-1.793c-0.16-0.058-0.225-0.183-0.195-0.374v0c0.048-0.31 0.459-0.462 1.234-0.457v0c1.763 0.029 2.78-0.837 3.05-2.596v0c0.256-0.784 0.509-1.989 0.759-3.617zM313.051-10.701v0c0 0 2.162 0.316 6.488 0.949v0c0.373 0.072 0.608 0.157 0.704 0.257 0.095 0.106 0.16 0.407 0.193 0.902 0.041 0.497 0.021 0.951-0.057 1.364-0.08 0.419-0.166 0.654-0.258 0.704-0.098 0.049-0.264 0.051-0.5 0.006v0l-5.333-1.022c0.066 0.189 0.135 0.392 0.209 0.61 0.075 0.211 0.157 0.56 0.248 1.045 0.091 0.479 0.047 1.187-0.132 2.123-0.179 0.936-0.596 1.868-1.249 2.795-0.653 0.927-1.493 1.699-2.521 2.317v0c-2.289 1.387-4.988 1.783-8.098 1.186v0c-0.812-0.156-1.677-0.478-2.595-0.965v0c-0.291 0.209-0.657 0.383-1.098 0.522-0.441 0.14-0.876 0.284-1.304 0.432v0c-1.067 0.359-1.652 0.81-1.757 1.354v0c-0.261 1.362 1.864 2.492 6.376 3.391 4.505 0.898 7.443 1.613 8.813 2.148 1.363 0.54 2.362 1.274 2.999 2.204v0c0.994 1.473 1.339 3.002 1.035 4.587v0c-0.26 1.355-1.114 2.641-2.562 3.856v0c-2.518 2.158-5.947 3.262-10.288 3.313v0c-1.544 0.016-3.151-0.136-4.82-0.456v0c-3.025-0.58-5.215-1.567-6.57-2.96-1.361-1.401-1.892-2.878-1.595-4.43v0c0.162-0.845 0.496-1.507 1.002-1.986 0.505-0.473 1.112-0.897 1.822-1.27 0.715-0.365 1.49-0.746 2.326-1.143 0.843-0.395 1.678-0.944 2.505-1.647v0c-1.514-0.426-2.736-1.166-3.667-2.221-0.93-1.061-1.317-2-1.16-2.818 0.156-0.812 0.487-1.373 0.994-1.683 0.507-0.31 1.099-0.546 1.775-0.709 0.676-0.162 1.38-0.295 2.113-0.399 0.74-0.109 1.403-0.308 1.988-0.596v0c-1.66-1.044-2.858-2.282-3.595-3.714-0.738-1.424-0.966-2.873-0.684-4.346v0c0.525-2.737 1.948-4.779 4.27-6.126 2.322-1.347 4.894-1.75 7.716-1.209 2.815 0.54 4.905 1.751 6.267 3.635zM295.208 11.843c-0.45 0.294-0.836 0.627-1.159 1-0.316 0.374-0.534 0.875-0.655 1.503-0.122 0.635-0.023 1.343 0.295 2.124 0.325 0.782 0.827 1.53 1.505 2.243v0c1.483 1.615 3.438 2.655 5.867 3.121 2.436 0.467 4.778 0.18 7.028-0.863 2.248-1.035 3.535-2.397 3.859-4.086 0.324-1.689-0.274-2.978-1.794-3.867v0c-0.724-0.403-2.67-0.943-5.84-1.619-3.176-0.677-5.225-1.161-6.146-1.453v0c-0.512 0.404-1.022 0.748-1.532 1.03-0.509 0.283-0.985 0.571-1.428 0.867zM310.676-4.527c0.433-2.259 0.219-4.204-0.642-5.836-0.854-1.637-2.207-2.633-4.06-2.988v0c-2.403-0.461-4.318 0.343-5.747 2.411v0c-0.545 0.791-0.925 1.747-1.14 2.867v0c-0.439 2.292-0.333 4.287 0.318 5.987v0c0.802 2.048 2.14 3.251 4.012 3.61 1.873 0.359 3.441 0.005 4.705-1.063 1.271-1.073 2.123-2.736 2.554-4.988z" opacity="1" transform="matrix(1,0,0,1,0,0)" fill="#ffffff" class="wordmark-text-0" data-fill-palette-color="quaternary" id="text-0"></path></svg></g></svg></g></svg></g></svg></g><g transform="matrix(1,0,0,1,75.02671157337733,0)"><svg viewBox="0 0 80.34657685324537 79.61621841351578" height="79.61621841351578" width="80.34657685324537"><g><svg xmlns="http://www.w3.org/2000/svg" xmlns:xlink="http://www.w3.org/1999/xlink" version="1.1" x="0" y="0" viewBox="4.8692006999999995 5.393941700000001 90.03086610000001 89.21247649999998" enable-background="new 0 0 100 100" xml:space="preserve" height="79.61621841351578" width="80.34657685324537" class="icon-icon-0" data-fill-palette-color="quaternary" id="icon-0"><rect x="42.081" y="37.975" transform="matrix(0.7072 -0.707 0.707 0.7072 -18.9995 45.1204)" width="5.787" height="15.047" fill="#ffffff" data-fill-palette-color="quaternary"></rect><rect x="82.186" y="45.142" transform="matrix(0.7071 -0.7071 0.7071 0.7071 -14.7768 76.603)" width="5.787" height="21.993" fill="#ffffff" data-fill-palette-color="quaternary"></rect><rect x="53.54" y="73.788" transform="matrix(0.7071 -0.7071 0.7071 0.7071 -43.4229 64.7371)" width="5.787" height="21.994" fill="#ffffff" data-fill-palette-color="quaternary"></rect><rect x="70.149" y="51.334" transform="matrix(-0.707 -0.7072 0.7072 -0.707 73.8201 177.2339)" width="6.946" height="43.984" fill="#ffffff" data-fill-palette-color="quaternary"></rect><path d="M38.427 54.501L70.348 86.422 85.899 70.871 53.978 38.95zM58.889 55.319L54.796 59.412 50.704 55.319 54.796 51.227z" fill="#ffffff" data-fill-palette-color="quaternary"></path><rect x="26.12" y="21.436" transform="matrix(0.7071 -0.7071 0.7071 0.7071 -12.3885 29.1678)" width="5.788" height="16.204" fill="#ffffff" data-fill-palette-color="quaternary"></rect><rect x="9.751" y="5.066" transform="matrix(0.7071 -0.7071 0.7071 0.7071 -5.6079 12.7994)" width="5.788" height="16.205" fill="#ffffff" data-fill-palette-color="quaternary"></rect></svg></g></svg></g><g></g></svg></g></svg></g></svg></g><defs></defs></svg><rect width="512" height="320" fill="none" stroke="none" visibility="hidden"></rect></g></svg></g></svg>