<?xml version="1.0" standalone="no"?>
<!DOCTYPE svg PUBLIC "-//W3C//DTD SVG 20010904//EN"
 "http://www.w3.org/TR/2001/REC-SVG-20010904/DTD/svg10.dtd">
<svg version="1.0" xmlns="http://www.w3.org/2000/svg"
 width="613.000000pt" height="400.000000pt" viewBox="0 0 613.000000 400.000000"
 preserveAspectRatio="xMidYMid meet">

<g transform="translate(0.000000,400.000000) scale(0.100000,-0.100000)"
fill="#000000" stroke="none">
<path d="M4160 2822 c0 -4 -14 -16 -32 -27 -45 -26 -19 -31 31 -5 44 22 53 40
21 40 -11 0 -20 -4 -20 -8z"/>
<path d="M3561 2778 c-30 -8 -44 -28 -18 -28 6 0 -1 -11 -18 -25 -20 -16 -43
-24 -69 -25 -37 0 -38 1 -20 14 32 24 6 31 -49 13 -29 -9 -70 -21 -92 -28 -22
-6 -45 -17 -50 -24 -6 -7 -22 -13 -35 -13 -31 0 -338 -106 -615 -212 -60 -23
-137 -52 -170 -65 -153 -58 -441 -186 -660 -295 -382 -189 -741 -422 -915
-593 -191 -188 -290 -311 -338 -420 -15 -35 -16 -163 -1 -208 51 -152 282
-229 691 -229 282 0 592 35 1158 131 423 72 613 105 770 135 41 7 194 30 340
49 267 36 375 62 448 107 32 20 36 20 67 5 81 -38 111 -35 450 51 271 69 463
97 595 87 149 -12 220 -7 220 15 0 5 -30 19 -67 31 -57 18 -93 22 -213 22
-189 1 -322 -20 -530 -82 -280 -84 -420 -62 -420 64 0 237 339 644 612 736 33
11 67 18 74 15 23 -9 17 -91 -11 -146 -29 -57 -32 -88 -9 -97 26 -10 46 9 97
92 39 65 47 87 47 126 0 59 -16 95 -44 103 -152 41 -461 -155 -650 -413 -78
-107 -103 -151 -156 -273 l-42 -97 -89 44 c-195 99 -376 127 -799 128 -300 0
-353 -6 -363 -43 -3 -10 1 -27 7 -36 12 -15 26 -16 172 -5 299 23 356 24 472
12 213 -22 322 -48 413 -98 79 -43 88 -90 25 -138 -31 -23 -181 -84 -266 -106
-19 -6 -44 -14 -55 -19 -11 -4 -74 -20 -140 -35 -66 -15 -145 -33 -175 -40
-88 -20 -320 -60 -695 -120 -192 -30 -375 -60 -405 -65 -73 -12 -257 -36 -400
-51 -157 -17 -533 -18 -640 -1 -179 28 -298 80 -353 154 -25 34 -34 121 -18
185 17 66 83 199 128 258 21 28 63 73 93 101 424 391 1193 786 2168 1114 205
69 325 106 604 186 49 15 56 19 48 34 -11 21 -64 29 -109 18z m-154 -84 c-3
-3 -12 -4 -19 -1 -8 3 -5 6 6 6 11 1 17 -2 13 -5z m-47 -12 c0 -14 -11 -21
-26 -15 -8 3 -11 9 -8 14 7 11 34 12 34 1z m-80 -26 c0 -8 -11 -13 -27 -13
-15 0 -29 -6 -31 -12 -2 -6 -8 -11 -13 -11 -18 0 3 22 35 36 39 17 36 17 36 0z
m-795 -286 c3 -5 -3 -10 -14 -10 -12 0 -21 5 -21 10 0 6 6 10 14 10 8 0 18 -4
21 -10z"/>
<path d="M4194 2675 c-18 -14 -17 -15 11 -9 17 4 39 11 50 15 17 6 15 8 -11 8
-16 1 -39 -6 -50 -14z"/>
<path d="M5425 1212 c-47 -16 -61 -30 -49 -49 17 -29 62 -45 121 -44 59 0 83
12 83 42 0 38 -99 71 -155 51z"/>
</g>
</svg>
